    <svg preserveAspectRatio="xMidYMid meet" id="comp-kfb6stxesvgcontent" data-bbox="42 17.8 116.075 164.3" viewBox="42 17.8 116.075 164.3" height="150" width="150" xmlns="http://www.w3.org/2000/svg" data-type="color" role="img">
              <g>
                <path d="M124.986 52.845l21.33 21.772-70.723 70.778-29.636 8.373 7.986-29.448 71.043-71.475z" data-color="1"></path>
                <path d="M147.401 74.245l-.033.033-22.058-22.044c.017-.017.033-.033.05-.033 2.94-2.874 6.793-4.452 10.896-4.452h.017c4.169 0 8.073 1.612 11.013 4.552 6.028 6.03 6.061 15.848.115 21.944z" fill="#D52B1E" data-color="2"></path>
                <path d="M126.325 52.845c-.015 0-.031.015-.046.031l20.445 20.432.031-.031-20.43-20.432z" fill="#191607" data-color="3"></path>
                <path d="M148.018 51.568c-3.095-3.079-7.205-4.789-11.577-4.789h-.015a16.33 16.33 0 0 0-11.608 4.819 5.313 5.313 0 0 0-.4.462c-.046.077-.108.138-.169.215l-.308.339-71.004 70.998-.077.292-8.006 30.887 30.837-8.037.292-.077 71.204-71.213.139-.123c.062-.062.139-.108.215-.169.154-.123.308-.246.447-.385 6.403-6.406 6.419-16.814.03-23.219zm-23.032 2.74l.031-.031 9.468 9.469-.031.031-69.495 69.489-9.468-9.47 69.495-69.488zm-77.424 97.774l1.955-7.514 5.558 5.543-7.513 1.971zm9.683-2.541l-7.174-7.175 4.372-16.875 19.645 19.663-16.843 4.387zm88.048-74.924l-69.495 69.488-9.468-9.454 69.496-69.504.031-.031 9.468 9.469-.032.032zm1.462-1.339l-.031.031-20.445-20.432c.015-.015.031-.031.046-.031 2.725-2.664 6.297-4.127 10.099-4.127h.015c3.864 0 7.482 1.494 10.207 4.219 5.59 5.589 5.621 14.689.109 20.34z" fill="#191607" data-color="3"></path>
                <path d="M135.855 65.117l-.031.031 9.468 9.469.031-.031-9.468-9.469zm-10.838-10.839l-.031.031 9.468 9.469.031-.031-9.468-9.469z" fill="#191607" data-color="3"></path>
                <path d="M154.998 132.404l-22.564 22.47-87.418-87.38L67.532 45.12l87.466 87.284z" data-color="2"></path>
                <path d="M67.532 44.5L44.5 67.55l87.939 87.95 23.047-23.05L67.532 44.5zm0 2.741l4.834 4.835-5.465 5.466 1.37 1.37 5.465-5.466 4.803 4.804-5.465 5.466 1.37 1.37 5.465-5.466 4.803 4.804-5.465 5.466 1.37 1.371 5.465-5.466 4.803 4.804-5.465 5.466 1.37 1.371 5.465-5.466 4.803 4.804-5.465 5.466 1.37 1.371 5.465-5.466 4.803 4.804-5.465 5.466 1.37 1.371 5.465-5.466 4.803 4.804-5.465 5.466 1.37 1.37 5.465-5.466 4.803 4.804-5.465 5.466 1.37 1.37 5.465-5.466 4.803 4.804-5.465 5.466 1.37 1.37 5.465-5.466 4.803 4.804-5.465 5.466 1.37 1.37 5.465-5.466 4.803 4.804-5.465 5.466 1.37 1.37 5.465-5.466 4.803 4.804-5.465 5.466 1.37 1.37 5.465-5.466 4.803 4.804-5.465 5.466 1.37 1.37 5.465-5.466 4.926 4.912-16.827 16.845L50.704 64.07l16.828-16.829zm64.907 105.518L47.24 67.55l2.094-2.109 85.215 85.225-2.11 2.093z" fill="#191607" data-color="3"></path>
              </g>
            </svg>