<svg preserveAspectRatio="xMidYMid meet" id="comp-kfb6stx2svgcontent" data-bbox="3.5 37 193 126" viewBox="3.5 37 193 126" height="126" width="193" xmlns="http://www.w3.org/2000/svg" data-name="Layer 1" data-type="color" role="img">
    <g>
        <path  d="M190.5 107.419a15.03 15.03 0 0 0-1.97-4.514l-16.234-24.7h-30.767v29.212z" data-color="1"></path>
        <path  d="M141.529 111.736V138.3h49.894v-25.244c0-.442-.025-.882-.062-1.32z" data-color="2"></path>
        <path  d="M139.017 117.148v23.641H55.796v-23.641h83.221z" data-color="2"></path>
        <path  d="M139.017 117.625H55.796V62.961L96.34 39.869l42.677 23.092v54.664z" data-color="3"></path>
        <path fill="#ffffff" d="M193.366 102.63l-18.7-28.96h-33.122V61.477L96.308 37 53.269 61.513V143.3H196.5v-31.211a19.682 19.682 0 0 0-3.134-9.459zM58.322 64.41l38.051-21.672 40.118 21.709v50.189H58.322zm0 73.868v-18.15h78.169v18.15zM141.808 78.7h30.1l17.2 26.648c.248.385.478.788.691 1.2h-48zm49.638 59.565h-49.638v-26.676h49.611c.007.167.027.332.027.5z" data-color="4"></path>
        <path  d="M110.938 146.279c0 7.843-6.385 14.201-14.261 14.201-7.876 0-14.261-6.358-14.261-14.201 0-7.843 6.385-14.201 14.261-14.201 7.876 0 14.261 6.358 14.261 14.201z" data-color="3"></path>
        <path fill="#ffffff" d="M96.677 163a16.721 16.721 0 1 1 16.791-16.721A16.775 16.775 0 0 1 96.677 163zm0-28.4a11.682 11.682 0 1 0 11.731 11.682A11.719 11.719 0 0 0 96.677 134.6z" data-color="4"></path>
        <path fill="#ffffff" d="M45.184 70.883v5.189H3.5v-5.189h41.684z" data-color="4"></path>
        <path fill="#ffffff" d="M45.184 100.883v5.189H24.342v-5.189h20.842z" data-color="4"></path>
        <path fill="#ffffff" d="M45.184 85.883v5.189H13.921v-5.189h31.263z" data-color="4"></path>
        <path fill="#ffffff" d="M76.527 65.174v40.131h40.3V65.174zm34.978 17.4H99.337V70.512h12.168zM94.016 70.512v12.059H81.848V70.512zm-12.168 17.4h12.168v12.06H81.848zm17.489 12.06V87.908h12.168v12.06z" data-color="4"></path>
        <path  d="M181.595 146.279c0 7.843-6.385 14.201-14.261 14.201-7.876 0-14.261-6.358-14.261-14.201 0-7.843 6.385-14.201 14.261-14.201 7.876 0 14.261 6.358 14.261 14.201z" data-color="3"></path>
        <path fill="#ffffff" d="M167.335 163a16.721 16.721 0 1 1 16.79-16.721A16.775 16.775 0 0 1 167.335 163zm0-28.4a11.682 11.682 0 1 0 11.73 11.682 11.719 11.719 0 0 0-11.73-11.682z" data-color="4"></path>
    </g>
</svg>